<svg width="64" height="70" viewBox="0 0 64 70" fill="none" xmlns="http://www.w3.org/2000/svg">
<g clip-path="url(#clip0_70483_5339)">
<g clip-path="url(#clip1_70483_5339)">
<path d="M32 39.7031C49.6731 39.7031 64 36.5923 64 32.755C64 28.9177 49.6731 25.807 32 25.807C14.3269 25.807 0 28.9177 0 32.755C0 36.5923 14.3269 39.7031 32 39.7031Z" fill="#F5F5F5"/>
<path d="M55 13.6653L44.854 2.24866C44.367 1.47048 43.656 1 42.907 1H21.093C20.344 1 19.633 1.47048 19.146 2.24767L9 13.6663V22.8367H55V13.6653Z" stroke="#D9D9D9"/>
<path d="M41.613 16.8127C41.613 15.2197 42.607 13.9045 43.84 13.9035H55V31.9059C55 34.0131 53.68 35.7402 52.05 35.7402H11.95C10.32 35.7402 9 34.0121 9 31.9059V13.9035H20.16C21.393 13.9035 22.387 15.2167 22.387 16.8098V16.8316C22.387 18.4247 23.392 19.7111 24.624 19.7111H39.376C40.608 19.7111 41.613 18.4128 41.613 16.8197V16.8127Z" fill="#FAFAFA" stroke="#D9D9D9"/>
</g>
<path d="M15.5869 54.0469V64H14.2607L9.25 56.3232V64H7.93066V54.0469H9.25L14.2812 61.7441V54.0469H15.5869ZM17.3984 60.3838V60.2266C17.3984 59.6934 17.4759 59.1989 17.6309 58.7432C17.7858 58.2829 18.0091 57.8841 18.3008 57.5469C18.5924 57.2051 18.9456 56.9408 19.3604 56.7539C19.7751 56.5625 20.2399 56.4668 20.7549 56.4668C21.2744 56.4668 21.7415 56.5625 22.1562 56.7539C22.5755 56.9408 22.931 57.2051 23.2227 57.5469C23.5189 57.8841 23.7445 58.2829 23.8994 58.7432C24.0544 59.1989 24.1318 59.6934 24.1318 60.2266V60.3838C24.1318 60.917 24.0544 61.4115 23.8994 61.8672C23.7445 62.3229 23.5189 62.7217 23.2227 63.0635C22.931 63.4007 22.5778 63.665 22.1631 63.8564C21.7529 64.0433 21.2881 64.1367 20.7686 64.1367C20.249 64.1367 19.7819 64.0433 19.3672 63.8564C18.9525 63.665 18.597 63.4007 18.3008 63.0635C18.0091 62.7217 17.7858 62.3229 17.6309 61.8672C17.4759 61.4115 17.3984 60.917 17.3984 60.3838ZM18.6631 60.2266V60.3838C18.6631 60.7529 18.7064 61.1016 18.793 61.4297C18.8796 61.7533 19.0094 62.0404 19.1826 62.291C19.3604 62.5417 19.5814 62.7399 19.8457 62.8857C20.11 63.027 20.4176 63.0977 20.7686 63.0977C21.1149 63.0977 21.418 63.027 21.6777 62.8857C21.9421 62.7399 22.1608 62.5417 22.334 62.291C22.5072 62.0404 22.637 61.7533 22.7236 61.4297C22.8148 61.1016 22.8604 60.7529 22.8604 60.3838V60.2266C22.8604 59.862 22.8148 59.5179 22.7236 59.1943C22.637 58.8662 22.5049 58.5768 22.3271 58.3262C22.154 58.071 21.9352 57.8704 21.6709 57.7246C21.4111 57.5788 21.1058 57.5059 20.7549 57.5059C20.4085 57.5059 20.1032 57.5788 19.8389 57.7246C19.5791 57.8704 19.3604 58.071 19.1826 58.3262C19.0094 58.5768 18.8796 58.8662 18.793 59.1943C18.7064 59.5179 18.6631 59.862 18.6631 60.2266ZM32.0752 64H29.9971L30.0107 62.9268H32.0752C32.7861 62.9268 33.3786 62.7786 33.8525 62.4824C34.3265 62.1816 34.682 61.7624 34.9189 61.2246C35.1605 60.6823 35.2812 60.0488 35.2812 59.3242V58.7158C35.2812 58.1462 35.2129 57.6403 35.0762 57.1982C34.9395 56.7516 34.7389 56.3757 34.4746 56.0703C34.2103 55.7604 33.8867 55.5257 33.5039 55.3662C33.1257 55.2067 32.6904 55.127 32.1982 55.127H29.9561V54.0469H32.1982C32.8499 54.0469 33.4447 54.1562 33.9824 54.375C34.5202 54.5892 34.9827 54.9014 35.3701 55.3115C35.762 55.7171 36.0628 56.2093 36.2725 56.7881C36.4821 57.3623 36.5869 58.0094 36.5869 58.7295V59.3242C36.5869 60.0443 36.4821 60.6937 36.2725 61.2725C36.0628 61.8467 35.7598 62.3366 35.3633 62.7422C34.9714 63.1478 34.4974 63.46 33.9414 63.6787C33.39 63.8929 32.7679 64 32.0752 64ZM30.7012 54.0469V64H29.3818V54.0469H30.7012ZM42.7393 62.7354V58.9277C42.7393 58.6361 42.68 58.3831 42.5615 58.1689C42.4476 57.9502 42.2744 57.7816 42.042 57.6631C41.8096 57.5446 41.5225 57.4854 41.1807 57.4854C40.8617 57.4854 40.5814 57.54 40.3398 57.6494C40.1029 57.7588 39.916 57.9023 39.7793 58.0801C39.6471 58.2578 39.5811 58.4492 39.5811 58.6543H38.3164C38.3164 58.39 38.3848 58.1279 38.5215 57.8682C38.6582 57.6084 38.8542 57.3737 39.1094 57.1641C39.3691 56.9499 39.679 56.7812 40.0391 56.6582C40.4036 56.5306 40.8092 56.4668 41.2559 56.4668C41.7936 56.4668 42.2676 56.5579 42.6777 56.7402C43.0924 56.9225 43.416 57.1982 43.6484 57.5674C43.8854 57.932 44.0039 58.39 44.0039 58.9414V62.3867C44.0039 62.6328 44.0244 62.8949 44.0654 63.1729C44.111 63.4508 44.1771 63.6901 44.2637 63.8906V64H42.9443C42.8805 63.8542 42.8304 63.6605 42.7939 63.4189C42.7575 63.1729 42.7393 62.945 42.7393 62.7354ZM42.958 59.5156L42.9717 60.4043H41.6934C41.3333 60.4043 41.012 60.4339 40.7295 60.4932C40.4469 60.5479 40.21 60.6322 40.0186 60.7461C39.8271 60.86 39.6813 61.0036 39.5811 61.1768C39.4808 61.3454 39.4307 61.5436 39.4307 61.7715C39.4307 62.0039 39.4831 62.2158 39.5879 62.4072C39.6927 62.5986 39.8499 62.7513 40.0596 62.8652C40.2738 62.9746 40.5358 63.0293 40.8457 63.0293C41.2331 63.0293 41.5749 62.9473 41.8711 62.7832C42.1673 62.6191 42.402 62.4186 42.5752 62.1816C42.7529 61.9447 42.8486 61.7145 42.8623 61.4912L43.4023 62.0996C43.3704 62.291 43.2839 62.5029 43.1426 62.7354C43.0013 62.9678 42.8122 63.1911 42.5752 63.4053C42.3428 63.6149 42.0648 63.7904 41.7412 63.9316C41.4222 64.0684 41.0622 64.1367 40.6611 64.1367C40.1598 64.1367 39.7201 64.0387 39.3418 63.8428C38.9681 63.6468 38.6764 63.3848 38.4668 63.0566C38.2617 62.724 38.1592 62.3525 38.1592 61.9424C38.1592 61.5459 38.2367 61.1973 38.3916 60.8965C38.5465 60.5911 38.7699 60.3382 39.0615 60.1377C39.3532 59.9326 39.7041 59.7777 40.1143 59.6729C40.5244 59.568 40.9824 59.5156 41.4883 59.5156H42.958ZM49.0898 56.6035V57.5742H45.0908V56.6035H49.0898ZM46.4443 54.8057H47.709V62.168C47.709 62.4186 47.7477 62.6077 47.8252 62.7354C47.9027 62.863 48.0029 62.9473 48.126 62.9883C48.249 63.0293 48.3812 63.0498 48.5225 63.0498C48.6273 63.0498 48.7367 63.0407 48.8506 63.0225C48.9691 62.9997 49.0579 62.9814 49.1172 62.9678L49.124 64C49.0238 64.0319 48.8916 64.0615 48.7275 64.0889C48.568 64.1208 48.3743 64.1367 48.1465 64.1367C47.8366 64.1367 47.5518 64.0752 47.292 63.9521C47.0322 63.8291 46.8249 63.624 46.6699 63.3369C46.5195 63.0452 46.4443 62.6533 46.4443 62.1611V54.8057ZM54.9346 62.7354V58.9277C54.9346 58.6361 54.8753 58.3831 54.7568 58.1689C54.6429 57.9502 54.4697 57.7816 54.2373 57.6631C54.0049 57.5446 53.7178 57.4854 53.376 57.4854C53.057 57.4854 52.7767 57.54 52.5352 57.6494C52.2982 57.7588 52.1113 57.9023 51.9746 58.0801C51.8424 58.2578 51.7764 58.4492 51.7764 58.6543H50.5117C50.5117 58.39 50.5801 58.1279 50.7168 57.8682C50.8535 57.6084 51.0495 57.3737 51.3047 57.1641C51.5645 56.9499 51.8743 56.7812 52.2344 56.6582C52.599 56.5306 53.0046 56.4668 53.4512 56.4668C53.9889 56.4668 54.4629 56.5579 54.873 56.7402C55.2878 56.9225 55.6113 57.1982 55.8438 57.5674C56.0807 57.932 56.1992 58.39 56.1992 58.9414V62.3867C56.1992 62.6328 56.2197 62.8949 56.2607 63.1729C56.3063 63.4508 56.3724 63.6901 56.459 63.8906V64H55.1396C55.0758 63.8542 55.0257 63.6605 54.9893 63.4189C54.9528 63.1729 54.9346 62.945 54.9346 62.7354ZM55.1533 59.5156L55.167 60.4043H53.8887C53.5286 60.4043 53.2074 60.4339 52.9248 60.4932C52.6423 60.5479 52.4053 60.6322 52.2139 60.7461C52.0225 60.86 51.8766 61.0036 51.7764 61.1768C51.6761 61.3454 51.626 61.5436 51.626 61.7715C51.626 62.0039 51.6784 62.2158 51.7832 62.4072C51.888 62.5986 52.0452 62.7513 52.2549 62.8652C52.4691 62.9746 52.7311 63.0293 53.041 63.0293C53.4284 63.0293 53.7702 62.9473 54.0664 62.7832C54.3626 62.6191 54.5973 62.4186 54.7705 62.1816C54.9482 61.9447 55.0439 61.7145 55.0576 61.4912L55.5977 62.0996C55.5658 62.291 55.4792 62.5029 55.3379 62.7354C55.1966 62.9678 55.0075 63.1911 54.7705 63.4053C54.5381 63.6149 54.2601 63.7904 53.9365 63.9316C53.6175 64.0684 53.2575 64.1367 52.8564 64.1367C52.3551 64.1367 51.9154 64.0387 51.5371 63.8428C51.1634 63.6468 50.8717 63.3848 50.6621 63.0566C50.457 62.724 50.3545 62.3525 50.3545 61.9424C50.3545 61.5459 50.432 61.1973 50.5869 60.8965C50.7419 60.5911 50.9652 60.3382 51.2568 60.1377C51.5485 59.9326 51.8994 59.7777 52.3096 59.6729C52.7197 59.568 53.1777 59.5156 53.6836 59.5156H55.1533Z" fill="black" fill-opacity="0.25"/>
</g>
<defs>
<clipPath id="clip0_70483_5339">
<rect width="64" height="70" fill="white"/>
</clipPath>
<clipPath id="clip1_70483_5339">
<rect width="64" height="40" fill="white"/>
</clipPath>
</defs>
</svg>
